# xmcd CD database file
#
# Track frame offsets:
#	150
#	15077
#	33601
#	65184
#	77559
#	91446
#	112243
#	131035
#	155153
#	167867
#	183117
#	197382
#	219304
#	240816
#	260623
#	279711
#
# Disc length: 3944 seconds
#
# Revision: 0
# Processed by: cddbd v1.5.1PL0 Copyright (c) Steve Scherf et al.
# Submitted via: CDex 1.51
#
DISCID=dc0f6610
DTITLE=George Melly and Digby Fairweather's Half-Dozen - Singing and Swining the Blues
DYEAR=2003
DGENRE=Blues
TTITLE0=The Joint is Jumpin'
TTITLE1=Ol' Rockin Chair
TTITLE2=I Can't Get Started With You
TTITLE3=Dr Jazz
TTITLE4=Michigan Water Blues
TTITLE5=Frankie and Johnny
TTITLE6=All the Girls Go Crazy ('bout the Way I Walk)
TTITLE7=Trouble in Mind
TTITLE8=On Revival Day
TTITLE9=Trombone Cholly
TTITLE10=Funny Feathers
TTITLE11=T'aint Nobody's Bizness If I Do
TTITLE12=Sugar
TTITLE13=Gee Baby, Ain't I Good To You?
TTITLE14=I'm A Ding Dong Daddy From Dumas
TTITLE15=September Song
EXTD=YEAR: 2003
EXTT0=
EXTT1=
EXTT2=
EXTT3=
EXTT4=
EXTT5=
EXTT6=
EXTT7=
EXTT8=
EXTT9=
EXTT10=
EXTT11=
EXTT12=
EXTT13=
EXTT14=
EXTT15=
PLAYORDER=
